<svg xmlns="http://www.w3.org/2000/svg" width="49.421" height="40.775" viewBox="0 0 49.421 40.775">
  <defs>
    <style>
      .cls-1 {
        fill: #b60611;
      }

      .cls-2 {
        fill: #d9d9d9;
        opacity: 0.3;
      }
    </style>
  </defs>
  <g id="组_957" data-name="组 957" transform="translate(-134.333 -906.552)">
    <path id="路径_4823" data-name="路径 4823" class="cls-1" d="M192.747,361.882l-16.034-16.043a3.1,3.1,0,0,0-5.412,2.276v7.246h-3.138l-9.007,0a3.078,3.078,0,0,0-3.215,3.2q-.009,5.676,0,11.345a3.1,3.1,0,0,0,3.175,3.169l12.185,0,0,1.4c-.006,1.968-.012,3.929.028,5.894a3.7,3.7,0,0,0,.785,2.181,2.831,2.831,0,0,0,2.218,1.1,3.447,3.447,0,0,0,2.4-1.084q8.025-8.015,16.037-16.04a3.047,3.047,0,0,0-.019-4.646Zm0,0" transform="translate(-10.077 562.712)"/>
    <path id="路径_4824" data-name="路径 4824" class="cls-2" d="M-16.414,363.509h0l-3.5.006-5.013,0a3.632,3.632,0,0,1-3.987-3.991v-20.4a3.63,3.63,0,0,1,3.994-3.981l3.321,0,3.648,0,2.029,0a2.11,2.11,0,0,0,2.36-2.162,15.194,15.194,0,0,0,.012-1.684,2.167,2.167,0,0,0-2.375-2.347h-3.685c-1.974,0-3.947,0-5.918.012a9.08,9.08,0,0,0-1.847.2,9.815,9.815,0,0,0-7.725,9.489c-.012,2.452-.009,4.908-.006,7.357l0,3.265-.006,3.425c0,2.462-.009,4.921.012,7.385a9.726,9.726,0,0,0,9.455,9.606c1.273.025,2.548.031,3.821.031l6.051-.012a2.067,2.067,0,0,0,2.181-1.893,11.343,11.343,0,0,0,.062-1.3V366.3a2.846,2.846,0,0,0-.605-2.147,3.055,3.055,0,0,0-2.273-.649Zm0,0" transform="translate(169.453 577.603)"/>
  </g>
</svg>
