<svg xmlns="http://www.w3.org/2000/svg" width="115.3" height="39.998" viewBox="0 0 115.3 39.998">
  <g id="nio-logo-black-desktop" transform="translate(-0.266 -0.909)">
    <path id="路径_624" data-name="路径 624" d="M41.105,31.3l-7.975-7.975c-1.666-1.666-1.525-1.609-3.886-1.609H14.291c-2.362,0-2.22-.057-3.887,1.609L2.43,31.3a21.583,21.583,0,0,0,8.084,8.832c2.043-2.041,8.167-8.166,9.186-9.185.836-.837,1.207-1.16,1.66-1.3a1.319,1.319,0,0,1,.407-.075,1.3,1.3,0,0,1,.407.075c.453.139.824.463,1.66,1.3l9.185,9.185A21.579,21.579,0,0,0,41.105,31.3Z" transform="translate(0.08 0.773)" fill="#fff" fill-rule="evenodd"/>
    <path id="路径_625" data-name="路径 625" d="M11.64,21.709c.6-.65.518-1.2,1.107-2.73a9.754,9.754,0,0,1,18.2,0c.59,1.53.505,2.08,1.107,2.73.586.633,1.2.782,3.118.782H43.43a21.582,21.582,0,1,0-43.164,0H8.522c1.916,0,2.532-.149,3.118-.782" fill="#fff" fill-rule="evenodd"/>
    <path id="路径_626" data-name="路径 626" d="M100.348,28.306a6.2,6.2,0,1,1,6.2-6.2,6.2,6.2,0,0,1-6.2,6.2m-.026-18.025A11.829,11.829,0,1,0,112.3,22.109a11.915,11.915,0,0,0-11.974-11.828" transform="translate(3.27 0.348)" fill="#fff" fill-rule="evenodd"/>
    <path id="路径_627" data-name="路径 627" d="M79.658,12.737V33.264h5.6V10.84H81.555a2.664,2.664,0,0,0-.811.081,1.515,1.515,0,0,0-1.005,1.005,2.667,2.667,0,0,0-.081.812" transform="translate(2.948 0.369)" fill="#fff" fill-rule="evenodd"/>
    <path id="路径_628" data-name="路径 628" d="M53.263,10.84V33.264h3.72a2.683,2.683,0,0,0,.812-.081A1.514,1.514,0,0,0,58.8,32.178a2.663,2.663,0,0,0,.081-.811V19.486l11.1,12.654a2.649,2.649,0,0,0,2.479,1.124h4.086V10.84h-3.72a2.669,2.669,0,0,0-.812.081,1.518,1.518,0,0,0-1.005,1.005,2.685,2.685,0,0,0-.081.812v11.88l-11.1-12.654a2.65,2.65,0,0,0-2.479-1.124Z" transform="translate(1.968 0.369)" fill="#fff" fill-rule="evenodd"/>
  </g>
</svg>
